<?xml version="1.0" encoding="UTF-8" standalone="no"?>
<svg
   xmlns:dc="http://purl.org/dc/elements/1.1/"
   xmlns:cc="http://creativecommons.org/ns#"
   xmlns:rdf="http://www.w3.org/1999/02/22-rdf-syntax-ns#"
   xmlns:svg="http://www.w3.org/2000/svg"
   xmlns="http://www.w3.org/2000/svg"
   xmlns:sodipodi="http://sodipodi.sourceforge.net/DTD/sodipodi-0.dtd"
   xmlns:inkscape="http://www.inkscape.org/namespaces/inkscape"
   width="307.28876mm"
   height="260.43875mm"
   viewBox="0 0 307.28877 260.43876"
   version="1.1"
   id="svg855"
   sodipodi:docname="boite 1.2.svg"
   inkscape:version="0.92.3 (2405546, 2018-03-11)">
  <metadata
     id="metadata861">
    <rdf:RDF>
      <cc:Work
         rdf:about="">
        <dc:format>image/svg+xml</dc:format>
        <dc:type
           rdf:resource="http://purl.org/dc/dcmitype/StillImage" />
        <dc:title></dc:title>
      </cc:Work>
    </rdf:RDF>
  </metadata>
  <defs
     id="defs859" />
  <sodipodi:namedview
     pagecolor="#ffffff"
     bordercolor="#666666"
     borderopacity="1"
     objecttolerance="10"
     gridtolerance="10"
     guidetolerance="10"
     inkscape:pageopacity="0"
     inkscape:pageshadow="2"
     inkscape:window-width="1920"
     inkscape:window-height="1017"
     id="namedview857"
     showgrid="false"
     inkscape:zoom="2.7797334"
     inkscape:cx="385.15246"
     inkscape:cy="525.78539"
     inkscape:window-x="-8"
     inkscape:window-y="-8"
     inkscape:window-maximized="1"
     inkscape:current-layer="svg855" />
  <g
     id="boite_charton001_cs001"
     transform="matrix(0,1,1,0,110.45613,156.29551)">
    <path
       id="boite_charton001_cs001_w0000"
       d="m 12.404276,139.10855 h 15.604275 v -24.95 -24.950001 H 12.980011 -2.0485282 v -0.07854 -0.07854 H -1.0242641 0 V 88.677208 88.30294 H 51.185621 102.37124 V 69.978069 51.653198 h -0.95 -0.95 v -0.6 -0.600001 h 2.07854 2.07854 v -6.299999 -6.299999 h -2.07854 -2.07854 v -0.6 -0.600001 h 0.95 0.95 V 18.326598 0 H 51.185617 0 v -0.37426408 -0.37426404 h -1.0242641 -1.0242641 v -0.0785398 -0.0785398 H 12.980012 28.008551 V -25.855608 -50.805607 H 12.404275 -3.2 v 0.350001 0.35 h -0.6000001 -0.6 V -78.412687 -106.71976 H -15.899999 -27.4 v 0.94999 0.95 h -0.6 -0.6 v -2.07854 -2.07853 h -6.300001 -6.3 v 2.07853 2.07854 h -0.6 -0.600001 v -0.95 -0.94999 h -10.825736 -10.825738 v 27.928536 27.928538 l -0.07378,0.07854 -0.07378,0.07854 -16.776219,11.995735 -16.776217,11.995735 -0.07854,0.464779 -0.07854,0.464779 h -14.949998 -14.95 v 12.439486 12.43948624 h 15.02854 15.02854 v 0.0785398 0.0785398 h -1.024266 -1.024265 V -0.37426405 0 h -26.210619 -26.21062 V 18.325736 36.65147 h 0.95 0.95 v 0.600001 0.6 h -2.07854 -2.07854 v 6.300001 6.300001 h 2.07854 2.07854 v 0.599999 0.599998 h -0.95 -0.95 V 69.977206 88.30294 h 26.21062 26.210619 v 0.374268 0.374268 h 1.024265 1.024266 v 0.07854 0.07854 h -15.02854 -15.02854 v 12.439494 12.43948 h 14.95 14.949998 l 0.07854,0.46468 0.07854,0.46468 16.78006,11.99583 16.780059,11.99583 0.06994,0.0785 0.06994,0.0785 v 27.92854 27.92854 h 10.825737 10.825737 v -0.95 -0.95 h 0.600001 0.6 v 2.07854 2.07854 H -34.9 h 6.3 v -2.07854 -2.07854 h 0.6 0.6 v 0.95 0.95 h 11.5 11.4999999 v -28.307 -28.30708 H -3.8 -3.2 v 0.35 0.35 h 15.604276"
       style="fill:none;fill-rule:evenodd;stroke:#ff0f0f;stroke-width:0.34999999;stroke-miterlimit:4;stroke-dasharray:none;stroke-opacity:1"
       inkscape:connector-curvature="0" />
    <path
       id="boite_charton001_cs001_w0001"
       d="m -27.4,80.751472 v 1.250001 1.249999 h -7.500001 -7.500001 v -1.25 -1.25 H -34.9 h 7.5"
       style="fill:none;fill-rule:evenodd;stroke:#ff0f0f;stroke-width:0.34999999;stroke-miterlimit:4;stroke-dasharray:none;stroke-opacity:1"
       inkscape:connector-curvature="0" />
    <path
       id="boite_charton001_cs001_w0002"
       d="m -27.4,5.0514717 v 1.2500001 1.2499999 h -7.500001 -7.500001 v -1.25 -1.25 H -34.9 h 7.5"
       style="fill:none;fill-rule:evenodd;stroke:#ff0f0f;stroke-width:0.34999999;stroke-miterlimit:4;stroke-dasharray:none;stroke-opacity:1"
       inkscape:connector-curvature="0" />
    <path
       id="boite_charton001_cs001_w0003"
       d="m -1.6614262,51.653198 h -1.25 -1.2499999 v -7.5 -7.5 h 1.25 1.2499999 v 7.500001 7.499999"
       style="fill:none;fill-rule:evenodd;stroke:#ff0f0f;stroke-width:0.34999999;stroke-miterlimit:4;stroke-dasharray:none;stroke-opacity:1"
       inkscape:connector-curvature="0" />
    <path
       id="boite_charton001_cs001_w0012"
       d="m -96.888573,36.653198 h 1.25 v 7.500001 7.499999 h -1.25 -1.25 v -7.5 -7.5 h 1.25"
       style="fill:none;fill-rule:evenodd;stroke:#ff0f0f;stroke-width:0.34999999;stroke-miterlimit:4;stroke-dasharray:none;stroke-opacity:1"
       inkscape:connector-curvature="0" />
    <title
       id="title852">boite_charton001_cs001</title>
  </g>
  <path
     style="fill:none;stroke:#ff0f0f;stroke-width:0.42582831px;stroke-linecap:butt;stroke-linejoin:miter;stroke-opacity:1"
     d="m 113.22688,136.54771 h 5.79085 v 9.13429 h -6.14538"
     id="path883"
     inkscape:connector-curvature="0" />
  <path
     style="fill:none;stroke:#ff0f0f;stroke-width:0.41792789px;stroke-linecap:butt;stroke-linejoin:miter;stroke-opacity:1"
     d="m 113.2478,105.77501 h 5.90881 v -9.372667 h -5.55431"
     id="path885-3"
     inkscape:connector-curvature="0" />
  <path
     style="fill:none;stroke:#ff0f0f;stroke-width:0.39401695px;stroke-linecap:butt;stroke-linejoin:miter;stroke-opacity:1"
     d="m 195.69126,136.62205 h -5.84306 v 9.09859 h 5.84306"
     id="path921-8"
     inkscape:connector-curvature="0" />
  <path
     style="fill:none;stroke:#ff0f0f;stroke-width:0.41626203px;stroke-linecap:butt;stroke-linejoin:miter;stroke-opacity:1"
     d="m 195.78339,96.17468 h -5.96851 v 9.94152 h 5.96851"
     id="path921-4"
     inkscape:connector-curvature="0" />
  <path
     style="fill:none;stroke:#ff0000;stroke-width:0.23037207px;stroke-linecap:butt;stroke-linejoin:miter;stroke-opacity:1"
     d="M 251.54174,96.082514 V 106.1642 h 2.53792 V 96.082514 h -2.53792"
     id="path837"
     inkscape:connector-curvature="0"
     inkscape:transform-center-y="-1.0052451"
     inkscape:transform-center-x="3.9628528" />
  <path
     style="fill:none;stroke:#ff0000;stroke-width:0.21981566px;stroke-linecap:butt;stroke-linejoin:miter;stroke-opacity:1"
     d="m 251.54915,136.64131 v 9.2328 h 2.5231 v -9.2328 h -2.5231"
     id="path837-3"
     inkscape:connector-curvature="0"
     inkscape:transform-center-y="-1.012667" />
  <path
     style="fill:none;stroke:#ff0000;stroke-width:0.22401671px;stroke-linecap:butt;stroke-linejoin:miter;stroke-opacity:1"
     d="m 55.159741,96.265123 v 9.596457 h 2.521152 v -9.596457 h -2.521152"
     id="path837-33"
     inkscape:connector-curvature="0"
     inkscape:transform-center-y="-1.0525519" />
  <path
     style="fill:none;stroke:#ff0000;stroke-width:0.2166805px;stroke-linecap:butt;stroke-linejoin:miter;stroke-opacity:1"
     d="m 55.130552,136.71702 v 8.88394 h 2.547904 v -8.88394 h -2.547904"
     id="path837-330"
     inkscape:connector-curvature="0"
     inkscape:transform-center-y="-0.97440768" />
</svg>
