<?xml version="1.0" encoding="UTF-8" standalone="no"?>
<svg
   xmlns:dc="http://purl.org/dc/elements/1.1/"
   xmlns:cc="http://creativecommons.org/ns#"
   xmlns:rdf="http://www.w3.org/1999/02/22-rdf-syntax-ns#"
   xmlns:svg="http://www.w3.org/2000/svg"
   xmlns="http://www.w3.org/2000/svg"
   xmlns:sodipodi="http://sodipodi.sourceforge.net/DTD/sodipodi-0.dtd"
   xmlns:inkscape="http://www.inkscape.org/namespaces/inkscape"
   width="307.28876mm"
   height="260.43875mm"
   viewBox="0 0 307.28877 260.43876"
   version="1.1"
   id="svg855"
   sodipodi:docname="boite 1.2.svg"
   inkscape:version="0.92.3 (2405546, 2018-03-11)">
  <metadata
     id="metadata861">
    <rdf:RDF>
      <cc:Work
         rdf:about="">
        <dc:format>image/svg+xml</dc:format>
        <dc:type
           rdf:resource="http://purl.org/dc/dcmitype/StillImage" />
        <dc:title></dc:title>
      </cc:Work>
    </rdf:RDF>
  </metadata>
  <defs
     id="defs859" />
  <sodipodi:namedview
     pagecolor="#ffffff"
     bordercolor="#666666"
     borderopacity="1"
     objecttolerance="10"
     gridtolerance="10"
     guidetolerance="10"
     inkscape:pageopacity="0"
     inkscape:pageshadow="2"
     inkscape:window-width="1920"
     inkscape:window-height="1017"
     id="namedview857"
     showgrid="false"
     inkscape:zoom="0.69493332"
     inkscape:cx="953.21035"
     inkscape:cy="552.30469"
     inkscape:window-x="-8"
     inkscape:window-y="-8"
     inkscape:window-maximized="1"
     inkscape:current-layer="svg855" />
  <g
     id="boite_charton001_cs001"
     transform="matrix(0,1,1,0,110.45613,156.29551)">
    <path
       id="boite_charton001_cs001_w0000"
       d="m 12.404276,139.10855 h 15.604275 v -24.95 -24.950001 H 12.980011 -2.0485282 v -0.07854 -0.07854 H -1.0242641 0 V 88.677208 88.30294 H 51.185621 102.37124 V 69.978069 51.653198 h -0.95 -0.95 v -0.6 -0.600001 h 2.07854 2.07854 v -6.299999 -6.299999 h -2.07854 -2.07854 v -0.6 -0.600001 h 0.95 0.95 V 18.326598 0 H 51.185617 0 v -0.37426408 -0.37426404 h -1.0242641 -1.0242641 v -0.0785398 -0.0785398 H 12.980012 28.008551 V -25.855608 -50.805607 H 12.404275 -3.2 v 0.350001 0.35 h -0.6000001 -0.6 V -78.412687 -106.71976 H -15.899999 -27.4 v 0.94999 0.95 h -0.6 -0.6 v -2.07854 -2.07853 h -6.300001 -6.3 v 2.07853 2.07854 h -0.6 -0.600001 v -0.95 -0.94999 h -10.825736 -10.825738 v 27.928536 27.928538 l -0.07378,0.07854 -0.07378,0.07854 -16.776219,11.995735 -16.776217,11.995735 -0.07854,0.464779 -0.07854,0.464779 h -14.949998 -14.95 v 12.439486 12.43948624 h 15.02854 15.02854 v 0.0785398 0.0785398 h -1.024266 -1.024265 V -0.37426405 0 h -26.210619 -26.21062 V 18.325736 36.65147 h 0.95 0.95 v 0.600001 0.6 h -2.07854 -2.07854 v 6.300001 6.300001 h 2.07854 2.07854 v 0.599999 0.599998 h -0.95 -0.95 V 69.977206 88.30294 h 26.21062 26.210619 v 0.374268 0.374268 h 1.024265 1.024266 v 0.07854 0.07854 h -15.02854 -15.02854 v 12.439494 12.43948 h 14.95 14.949998 l 0.07854,0.46468 0.07854,0.46468 16.78006,11.99583 16.780059,11.99583 0.06994,0.0785 0.06994,0.0785 v 27.92854 27.92854 h 10.825737 10.825737 v -0.95 -0.95 h 0.600001 0.6 v 2.07854 2.07854 H -34.9 h 6.3 v -2.07854 -2.07854 h 0.6 0.6 v 0.95 0.95 h 11.5 11.4999999 v -28.307 -28.30708 H -3.8 -3.2 v 0.35 0.35 h 15.604276"
       style="fill:none;fill-rule:evenodd;stroke:#191919;stroke-width:0.34999999;stroke-miterlimit:4;stroke-dasharray:none"
       inkscape:connector-curvature="0" />
    <path
       id="boite_charton001_cs001_w0001"
       d="m -27.4,80.751472 v 1.250001 1.249999 h -7.500001 -7.500001 v -1.25 -1.25 H -34.9 h 7.5"
       style="fill:none;fill-rule:evenodd;stroke:#191919;stroke-width:0.34999999;stroke-miterlimit:4;stroke-dasharray:none"
       inkscape:connector-curvature="0" />
    <path
       id="boite_charton001_cs001_w0002"
       d="m -27.4,5.0514717 v 1.2500001 1.2499999 h -7.500001 -7.500001 v -1.25 -1.25 H -34.9 h 7.5"
       style="fill:none;fill-rule:evenodd;stroke:#191919;stroke-width:0.34999999;stroke-miterlimit:4;stroke-dasharray:none"
       inkscape:connector-curvature="0" />
    <path
       id="boite_charton001_cs001_w0003"
       d="m -1.6614262,51.653198 h -1.25 -1.2499999 v -7.5 -7.5 h 1.25 1.2499999 v 7.500001 7.499999"
       style="fill:none;fill-rule:evenodd;stroke:#191919;stroke-width:0.34999999;stroke-miterlimit:4;stroke-dasharray:none"
       inkscape:connector-curvature="0" />
    <path
       id="boite_charton001_cs001_w0004"
       d="m -50.496616,141.10457 h 2.25 v 1.25 1.25 h -2.25 -2.25 v -1.25 -1.25 h 2.25"
       style="fill:none;fill-rule:evenodd;stroke:#191919;stroke-width:0.34999999;stroke-miterlimit:4;stroke-dasharray:none"
       inkscape:connector-curvature="0" />
    <path
       id="boite_charton001_cs001_w0005"
       d="m -12.553382,-54.051628 v -1.25 h 2.25 2.2500001 v 1.25 1.25 h -2.2500001 -2.25 v -1.25"
       style="fill:none;fill-rule:evenodd;stroke:#191919;stroke-width:0.34999999;stroke-miterlimit:4;stroke-dasharray:none"
       inkscape:connector-curvature="0" />
    <path
       id="boite_charton001_cs001_w0006"
       d="m -52.746616,-54.051628 v -1.25 h 2.25 2.25 v 1.25 1.25 h -2.25 -2.25 v -1.25"
       style="fill:none;fill-rule:evenodd;stroke:#191919;stroke-width:0.34999999;stroke-miterlimit:4;stroke-dasharray:none"
       inkscape:connector-curvature="0" />
    <path
       id="boite_charton001_cs001_w0007"
       d="m -17.053383,142.35457 v 1.25 h -2.25 -2.25 v -1.25 -1.25 h 2.25 2.25 v 1.25"
       style="fill:none;fill-rule:evenodd;stroke:#191919;stroke-width:0.34999999;stroke-miterlimit:4;stroke-dasharray:none"
       inkscape:connector-curvature="0" />
    <path
       id="boite_charton001_cs001_w0008"
       d="m -57.246616,142.35457 v 1.25 h -2.25 -2.25 v -1.25 -1.25 h 2.25 2.25 v 1.25"
       style="fill:none;fill-rule:evenodd;stroke:#191919;stroke-width:0.34999999;stroke-miterlimit:4;stroke-dasharray:none"
       inkscape:connector-curvature="0" />
    <path
       id="boite_charton001_cs001_w0009"
       d="m -21.553383,-54.051628 v -1.25 h 2.25 2.25 v 1.25 1.25 h -2.25 -2.25 v -1.25"
       style="fill:none;fill-rule:evenodd;stroke:#191919;stroke-width:0.34999999;stroke-miterlimit:4;stroke-dasharray:none"
       inkscape:connector-curvature="0" />
    <path
       id="boite_charton001_cs001_w0010"
       d="m -59.496616,-55.301628 h 2.25 v 1.25 1.25 h -2.25 -2.25 v -1.25 -1.25 h 2.25"
       style="fill:none;fill-rule:evenodd;stroke:#191919;stroke-width:0.34999999;stroke-miterlimit:4;stroke-dasharray:none"
       inkscape:connector-curvature="0" />
    <path
       id="boite_charton001_cs001_w0011"
       d="m -12.553382,142.35457 v -1.25 h 2.25 2.2500001 v 1.25 1.25 h -2.2500001 -2.25 v -1.25"
       style="fill:none;fill-rule:evenodd;stroke:#191919;stroke-width:0.34999999;stroke-miterlimit:4;stroke-dasharray:none"
       inkscape:connector-curvature="0" />
    <path
       id="boite_charton001_cs001_w0012"
       d="m -96.888573,36.653198 h 1.25 v 7.500001 7.499999 h -1.25 -1.25 v -7.5 -7.5 h 1.25"
       style="fill:none;fill-rule:evenodd;stroke:#191919;stroke-width:0.34999999;stroke-miterlimit:4;stroke-dasharray:none"
       inkscape:connector-curvature="0" />
    <title
       id="title852">boite_charton001_cs001</title>
  </g>
  <path
     style="fill:none;stroke:#000000;stroke-width:0.26378831px;stroke-linecap:butt;stroke-linejoin:miter;stroke-opacity:1"
     d="m 113.17609,143.83959 h 4.63598 v 4.37842 h -4.91981"
     id="path883"
     inkscape:connector-curvature="0" />
  <path
     style="fill:none;stroke:#000000;stroke-width:0.26187056px;stroke-linecap:butt;stroke-linejoin:miter;stroke-opacity:1"
     d="m 112.95132,139.07872 h 4.97002 v -4.37497 h -4.67184"
     id="path885"
     inkscape:connector-curvature="0" />
  <path
     style="fill:none;stroke:#000000;stroke-width:0.25878242px;stroke-linecap:butt;stroke-linejoin:miter;stroke-opacity:1"
     d="m 113.19521,107.81712 h 4.96248 v -4.27889 h -4.66475"
     id="path885-3"
     inkscape:connector-curvature="0" />
  <path
     style="fill:none;stroke:#000000;stroke-width:0.2645497px;stroke-linecap:butt;stroke-linejoin:miter;stroke-opacity:1"
     d="m 113.09715,98.95734 h 4.96811 v -4.46667 h -4.67004"
     id="path885-1"
     inkscape:connector-curvature="0" />
  <path
     style="fill:none;stroke:#000000;stroke-width:0.25413746px;stroke-linecap:butt;stroke-linejoin:miter;stroke-opacity:1"
     d="m 195.70007,134.88565 h -5.14736 v 4.29672 h 5.14736"
     id="path921"
     inkscape:connector-curvature="0" />
  <path
     style="fill:none;stroke:#000000;stroke-width:0.25658023px;stroke-linecap:butt;stroke-linejoin:miter;stroke-opacity:1"
     d="m 195.6672,143.78432 h -5.13989 v 4.38609 h 5.13989"
     id="path921-8"
     inkscape:connector-curvature="0" />
  <path
     style="fill:none;stroke:#000000;stroke-width:0.25700581px;stroke-linecap:butt;stroke-linejoin:miter;stroke-opacity:1"
     d="m 195.76238,103.60255 h -5.13989 v 4.40065 h 5.13989"
     id="path921-4"
     inkscape:connector-curvature="0" />
  <path
     style="fill:none;stroke:#000000;stroke-width:0.25168446px;stroke-linecap:butt;stroke-linejoin:miter;stroke-opacity:1"
     d="m 195.76433,94.651893 h -5.14369 v 4.217182 h 5.14369"
     id="path921-0"
     inkscape:connector-curvature="0" />
</svg>
